<?xml version="1.0" encoding="UTF-8"?>
<svg id="Layer_1" data-name="Layer 1" xmlns="http://www.w3.org/2000/svg" viewBox="0 0 1024.8 354.8">
  <g>
    <path d="M270.5,73.63l-.36-.21-26.46-15.45-.27-.17-26.56-15.5-.18-.1-26.64-15.55-.09-.05-11.7-6.83c-9.29-5.42-20.77-5.42-30.06,0l-11.71,6.83-.09.05-26.64,15.55-.18.1-26.56,15.5-.26.16-26.47,15.46-.36.21-14.61,8.53c-5.26,3.07-5.26,10.66,0,13.73l14.61,8.53.35.21,26.48,15.46.26.14,26.56,15.51.18.1,26.64,15.55.09.05,11.7,6.83c9.29,5.42,20.78,5.42,30.06,0l11.7-6.83.09-.05,26.64-15.55.18-.1,26.56-15.51.27-.16,26.47-15.45.35-.21,14.61-8.53c5.26-3.07,5.26-10.66,0-13.73l-14.61-8.53ZM216.85,104.53l-.18.1-26.64,15.55-.09.05-19.21,11.22c-4.64,2.71-10.39,2.71-15.03,0l-19.22-11.22-.09-.05-26.64-15.55-.18-.1-20.68-12.07c-2.63-1.53-2.63-5.33,0-6.87l20.68-12.08.18-.09,26.64-15.56.09-.05,19.22-11.22c4.64-2.71,10.39-2.71,15.03,0l19.21,11.22.09.05,26.64,15.56.18.09,20.68,12.08c2.63,1.53,2.63,5.33,0,6.87l-20.68,12.07Z"/>
    <path d="M292.88,121.08c7.95-4.64,17.94,1.1,17.94,10.3v37.1c0,2.83-1.5,5.44-3.94,6.87l-16.91,9.87c-2.65,1.55-5.98-.36-5.98-3.43v-20.83c0-1.53-1.66-2.49-2.99-1.72l-23.83,13.91-.35.21-26.47,15.45-.27.17-22.62,13.2c-2.44,1.43-3.94,4.04-3.94,6.87v85.62c0,1.53,1.66,2.49,2.99,1.72l23.57-13.77.27.17v-.32l26.47-15.45.35.21v-.41l24.85-14.51c1.22-.71,1.97-2.02,1.97-3.43v-24.37c0-2.83,1.5-5.44,3.94-6.87l16.91-9.87c2.65-1.55,5.98.37,5.98,3.43v24.29l-.53.31.53.31v23.75c0,4.24-2.25,8.16-5.92,10.3l-20.92,12.21-.43.26-26.38,15.4-.36.22-26.46,15.44-.27.17-26.56,15.5-.18.1-14.68,8.57c-5.3,3.09-11.96-.73-11.96-6.87v-137.67c0-2.83,1.5-5.44,3.94-6.87l22.7-13.25.18-.1,26.56-15.5.27-.17,26.46-15.44.36-.22,26.37-15.4.45-.26,8.89-5.19Z"/>
    <path d="M123.05,235.69l.18.09,22.7,13.26c2.44,1.43,3.94,4.04,3.94,6.87v75.23c0,6.14-6.66,9.96-11.96,6.87-29.06-16.97-116.24-67.86-116.24-67.86-3.66-2.14-5.91-6.06-5.91-10.3v-128.46c0-9.21,9.99-14.94,17.94-10.3l8.88,5.18.45.26,26.37,15.4.36.22,26.47,15.45.26.16,26.56,15.5.18.1,22.7,13.25c2.44,1.43,3.94,4.04,3.94,6.87v19.73c0,3.07-3.33,4.98-5.98,3.43l-20.66-12.06-.18-.1-26.56-15.5-.26-.16-26.48-15.46-.35-.21-23.83-13.91c-1.33-.77-2.99.18-2.99,1.72v86.77c0,2.12,1.13,4.08,2.96,5.15l23.86,13.93.35.21,26.48,15.46.26.15,23.57,13.77c1.33.77,2.99-.18,2.99-1.72v-25.47c0-1.41-.75-2.72-1.97-3.43l-20.91-12.2c-2.44-1.43-3.94-4.04-3.94-6.87v-19.72c0-3.07,3.33-4.98,5.98-3.43l20.84,12.17Z"/>
  </g>
  <path d="M460.19,117.51c-21.6,0-37.47-15.77-37.47-36.96s15.87-36.96,37.47-36.96,37.37,15.77,37.37,36.96-15.77,36.96-37.37,36.96ZM485.78,80.55c0-14.64-10.85-25.7-25.59-25.7s-25.59,11.16-25.59,25.7,10.95,25.7,25.59,25.7c14.74-.1,25.59-10.95,25.59-25.7Z"/>
  <path d="M539.12,59.97c16.38,0,28.36,12.29,28.36,28.77s-11.98,28.77-28.36,28.77c-7.06,0-13.31-2.46-18.22-6.65v24.98h-11.26V61.2h7.68l2.05,6.76c4.91-5.02,11.88-7.99,19.76-7.99ZM556.01,88.74c0-10.34-7.47-18.02-17.81-18.02s-18.02,7.78-18.02,18.02,7.58,18.02,18.02,18.02,17.81-7.68,17.81-18.02Z"/>
  <path d="M631.47,88.85c0,1.33-.1,2.46-.31,3.79h-44.43c1.43,8.91,7.78,14.33,16.79,14.33,6.55,0,11.88-2.97,14.74-7.99h11.88c-4.4,11.57-14.33,18.63-26.62,18.63-16.07,0-28.15-12.49-28.15-28.77s12.18-28.77,28.15-28.77c16.18-.1,27.95,12.8,27.95,28.77ZM587.14,83.42h33.07c-2.05-8.29-8.29-13.21-16.69-13.21s-14.44,5.02-16.38,13.21Z"/>
  <path d="M672.42,60.08c12.8,0,20.78,9.62,20.78,23.04v33.07h-11.26v-30.71c0-9.93-4.3-15.25-12.59-15.25s-14.74,6.86-14.74,16.59v29.38h-11.26v-54.98h7.88l2.25,7.68c4.2-5.43,10.95-8.8,18.94-8.8Z"/>
  <path d="M495,178.12c-.2,21.81-14.95,37.47-35.83,37.47s-36.34-15.56-36.34-36.96,15.25-36.75,36.04-36.75c17.3,0,31.84,10.85,35.01,26.41h-12.08c-3.07-9.21-11.98-15.15-22.73-15.15-14.33,0-24.47,10.54-24.47,25.49s9.83,25.49,24.47,25.49c11.36,0,20.58-6.45,23.14-16.07h-25.39v-9.93h38.19Z"/>
  <path d="M559.29,186.92c0,1.33-.1,2.46-.2,3.79h-44.53c1.43,8.91,7.78,14.33,16.79,14.33,6.55,0,11.88-2.97,14.74-7.99h11.88c-4.4,11.57-14.33,18.63-26.62,18.63-16.07,0-28.15-12.49-28.15-28.77s12.18-28.77,28.15-28.77c16.07-.1,27.95,12.69,27.95,28.77ZM514.96,181.5h33.07c-2.05-8.29-8.29-13.21-16.69-13.21-8.29-.2-14.64,5.02-16.38,13.21Z"/>
  <path d="M596.56,215.49c-16.69,0-29.18-12.29-29.18-28.77s12.49-28.77,29.18-28.77,29.28,12.29,29.28,28.77-12.59,28.77-29.28,28.77ZM614.37,186.82c0-10.54-7.47-18.02-17.81-18.02s-17.81,7.47-17.81,18.02,7.47,18.02,17.81,18.02c10.34-.1,17.81-7.58,17.81-18.02Z"/>
  <path d="M633.62,196.75h10.95c.2,5.84,5.12,8.8,11.77,8.8,6.04,0,10.75-2.56,10.75-7.17,0-5.22-5.84-6.35-12.59-7.47-9.21-1.54-19.96-3.58-19.96-16.28,0-9.83,8.5-16.59,21.19-16.59s20.99,6.96,21.19,17.61h-10.75c-.31-5.22-4.1-7.99-10.75-7.99-6.25,0-10.14,2.56-10.14,6.65,0,4.81,5.53,5.84,12.18,6.86,9.32,1.54,20.48,3.38,20.48,16.79,0,10.65-8.91,17.61-22.22,17.61-13-.1-21.81-7.47-22.11-18.84Z"/>
  <path d="M719.82,158.05c16.48,0,28.36,12.29,28.36,28.77s-12.08,28.77-28.36,28.77c-7.06,0-13.31-2.46-18.22-6.65v24.88h-11.26v-74.53h7.68l2.05,6.76c5.02-5.02,11.88-7.99,19.76-7.99ZM736.71,186.82c0-10.34-7.47-18.02-17.81-18.02s-18.02,7.78-18.02,18.02,7.68,18.02,18.02,18.02,17.81-7.68,17.81-18.02Z"/>
  <path d="M814.72,159.28v54.77h-9.01l-1.13-6.76c-4.91,5.02-11.88,7.99-19.86,7.99-16.28,0-28.46-12.29-28.46-28.77s12.18-28.77,28.46-28.77c7.99,0,14.95,3.07,20.07,8.19l1.33-6.86,8.6.2ZM803.46,186.82c0-10.34-7.47-18.02-17.81-18.02s-18.02,7.78-18.02,18.02,7.68,18.02,18.02,18.02c10.24-.2,17.81-7.78,17.81-18.02Z"/>
  <path d="M861.41,203.92v10.24h-8.4c-11.98,0-19.45-7.37-19.45-19.55v-25.7h-9.83v-2.25l19.04-20.37h1.95v12.8h16.28v9.73h-16.18v24.78c0,6.65,3.58,10.24,10.24,10.24h6.35v.1Z"/>
  <path d="M872.16,139.21h11.67v11.67h-11.67v-11.67ZM872.46,159.28h11.26v54.77h-11.26v-54.77Z"/>
  <path d="M954.16,159.28v54.77h-9.01l-1.13-6.76c-4.91,5.02-11.88,7.99-19.96,7.99-16.28,0-28.46-12.29-28.46-28.77s12.18-28.77,28.46-28.77c7.99,0,15.05,3.07,20.07,8.19l1.33-6.86,8.7.2ZM942.9,186.82c0-10.34-7.47-18.02-17.81-18.02s-18.02,7.78-18.02,18.02,7.68,18.02,18.02,18.02c10.34-.2,17.81-7.78,17.81-18.02Z"/>
  <path d="M970.23,139.62h11.26v74.53h-11.26v-74.53Z"/>
  <path d="M422.82,276.71c0-21.29,15.56-36.75,36.45-36.75,16.79,0,30.3,10.44,33.99,26.52h-11.77c-3.38-9.42-11.67-15.15-22.22-15.15-14.23,0-24.67,10.75-24.67,25.49s10.44,25.49,24.67,25.49c10.85,0,19.25-6.04,22.42-16.18h11.77c-3.79,16.69-17.2,27.44-34.3,27.44-20.78-.1-36.34-15.77-36.34-36.86Z"/>
  <path d="M530.11,313.46c-16.69,0-29.28-12.29-29.28-28.77s12.59-28.77,29.28-28.77,29.18,12.29,29.18,28.77c.1,16.59-12.39,28.77-29.18,28.77ZM547.93,284.69c0-10.54-7.47-18.02-17.81-18.02s-17.81,7.47-17.81,18.02,7.47,18.02,17.81,18.02,17.81-7.47,17.81-18.02Z"/>
  <path d="M600.45,256.13c12.8,0,20.78,9.62,20.78,23.04v33.07h-11.26v-30.71c0-9.93-4.3-15.25-12.59-15.25s-14.74,6.86-14.74,16.59v29.38h-11.26v-54.87h7.88l2.25,7.68c3.99-5.63,10.75-8.91,18.94-8.91Z"/>
  <path d="M632.39,294.83h10.95c.2,5.84,5.12,8.8,11.77,8.8,6.04,0,10.75-2.56,10.75-7.17,0-5.22-5.84-6.35-12.59-7.47-9.21-1.54-19.96-3.58-19.96-16.28,0-9.83,8.5-16.59,21.19-16.59s20.99,6.96,21.19,17.61h-10.75c-.31-5.22-4.1-7.99-10.75-7.99-6.25,0-10.14,2.56-10.14,6.65,0,4.81,5.53,5.84,12.18,6.86,9.32,1.54,20.48,3.38,20.48,16.79,0,10.65-8.91,17.61-22.22,17.61-13.21-.2-21.91-7.47-22.11-18.84Z"/>
  <path d="M714.29,313.46c-16.69,0-29.28-12.29-29.28-28.77s12.59-28.77,29.28-28.77,29.18,12.29,29.18,28.77c.1,16.59-12.39,28.77-29.18,28.77ZM732.1,284.69c0-10.54-7.47-18.02-17.81-18.02s-17.81,7.47-17.81,18.02,7.47,18.02,17.81,18.02,17.81-7.47,17.81-18.02Z"/>
  <path d="M786.67,256.95v10.65h-5.94c-9.32,0-13.92,5.32-13.92,15.25v29.28h-11.26v-54.77h7.58l1.95,7.47c3.89-5.22,9.32-7.78,16.79-7.78l4.81-.1Z"/>
  <path d="M826.29,301.89v10.24h-8.4c-11.98,0-19.35-7.37-19.35-19.55v-25.7h-9.83v-2.25l19.04-20.37h1.95v12.8h16.28v9.73h-16.18v24.78c0,6.65,3.58,10.24,10.24,10.24h6.25v.1Z"/>
  <path d="M836.94,237.19h11.67v11.67h-11.67v-11.67ZM837.25,257.26h11.26v54.77h-11.26v-54.77Z"/>
  <path d="M863.66,288.99v-31.74h11.26v30.1c0,9.62,5.22,15.25,13.72,15.25s13.62-5.84,13.62-15.25v-30.1h11.26v31.74c0,14.74-9.73,24.47-24.88,24.47s-24.98-9.73-24.98-24.47Z"/>
  <path d="M989.69,256.13c11.47,0,19.35,8.8,19.35,21.29v34.81h-11.26v-32.15c0-8.8-3.89-13.82-10.65-13.82-7.27,0-12.8,6.65-12.8,15.97v30.1h-10.85v-32.15c0-8.8-3.79-13.82-10.65-13.82-7.27,0-12.9,6.65-12.9,15.97v30.1h-11.26v-55.08h7.99l1.95,7.17c4.1-5.22,10.34-8.29,17.1-8.29,7.37,0,13.31,3.58,16.38,9.62,3.79-6.14,10.54-9.73,17.61-9.73Z"/>
</svg>