<svg id="Layer_1" data-name="Layer 1" xmlns="http://www.w3.org/2000/svg" xmlns:xlink="http://www.w3.org/1999/xlink" viewBox="0 0 1511.65 506.76"><defs><style>.cls-1{fill:none;}.cls-2{clip-path:url(#clip-path);}.cls-3{fill:#00b1ff;}</style><clipPath id="clip-path" transform="translate(-204.17 -235.76)"><rect class="cls-1" width="1920" height="978.25"/></clipPath></defs><g id="Blue_Horizontal_Lockup" data-name="Blue Horizontal Lockup"><g class="cls-2"><polygon class="cls-3" points="204.07 365.27 204.07 506.73 0.01 388.91 0 153.15 204.07 270.97 204.07 318.11 163.34 294.61 142.93 282.82 142.92 282.82 40.84 223.88 40.84 365.33 163.34 436.06 163.34 388.91 102.09 353.55 102.09 329.97 102.09 306.4 204.07 365.27"/><path class="cls-3" d="M428.68,235.76,224.5,353.64,428.68,471.52,632.85,353.64Zm0,188.61L306.17,353.64l122.52-70.73,122.49,70.73-20.41,11.79Z" transform="translate(-204.17 -235.76)"/><polygon class="cls-3" points="326.78 270.4 367.62 246.83 408.45 223.25 408.46 270.4 449.18 246.89 449.18 153.12 245.12 270.94 245.12 317.55 245.12 317.55 245.12 331.63 245.12 506.17 245.01 506.11 245.01 506.76 449.18 388.88 449.18 294.04 408.46 317.56 408.46 364.71 285.95 435.44 285.96 293.98 326.78 270.4"/><g class="cls-2"><path class="cls-3" d="M880.57,398.17c-32.81,0-57-24.06-57-56.05s24.2-56.05,57-56.05,56.91,24,56.91,56.05-24.15,56.06-56.91,56.06Zm38.87-56.05c0-22.3-16.59-39-38.87-39s-39,16.84-39,39,16.69,39,39,39,38.87-16.69,38.87-39" transform="translate(-204.17 -235.76)"/><path class="cls-3" d="M1000.48,310.76c24.94,0,43.18,18.62,43.18,43.71s-18.24,43.75-43.18,43.75a41.67,41.67,0,0,1-27.67-10.09V426H955.67V312.8h11.55L970.44,323a41.5,41.5,0,0,1,30-12.26Zm25.84,43.71c0-15.71-11.47-27.35-27.19-27.35s-27.3,11.75-27.3,27.35,11.59,27.35,27.3,27.35,27.19-11.64,27.19-27.35" transform="translate(-204.17 -235.76)"/><path class="cls-3" d="M1141.19,354.67a56.15,56.15,0,0,1-.35,5.63h-67.65c2.14,13.5,11.86,21.81,25.51,21.81,10,0,18-4.61,22.42-12.21h18c-6.63,17.6-21.85,28.28-40.46,28.28-24.37,0-42.83-18.81-42.83-43.71s18.42-43.7,42.83-43.7c25.51,0,42.49,19.64,42.49,43.9Zm-67.58-8.3H1124c-3.08-12.66-12.62-20.13-25.31-20.13-12.89,0-22.28,7.77-25.09,20.13" transform="translate(-204.17 -235.76)"/><path class="cls-3" d="M1203.5,310.9c19.49,0,31.66,14.53,31.66,35.06v50.19H1218V349.44c0-15.14-6.59-23.18-19.12-23.18-13.1,0-22.39,10.54-22.39,25.26v44.63h-17.14V312.8h11.95l3.32,11.63c6.31-8.41,16.61-13.53,28.85-13.53Z" transform="translate(-204.17 -235.76)"/><path class="cls-3" d="M933.45,490.2c-.44,33.12-22.8,56.89-54.54,56.89s-55.3-23.7-55.3-56,23.29-56,54.95-56c26.35,0,48.4,16.59,53.28,40.1H913.56c-4.63-13.89-18.36-22.94-34.65-22.94-21.84,0-37.26,16-37.26,38.83s15,38.86,37.26,38.86c17.25,0,31.27-9.75,35.31-24.43H875.7V490.19Z" transform="translate(-204.17 -235.76)"/><path class="cls-3" d="M1031.31,503.58a53.19,53.19,0,0,1-.36,5.63H963.3c2.14,13.51,11.87,21.81,25.51,21.81,10,0,18-4.6,22.43-12.2h18c-6.64,17.59-21.85,28.27-40.46,28.27-24.37,0-42.83-18.81-42.83-43.7s18.42-43.71,42.83-43.71c25.5,0,42.49,19.65,42.49,43.9Zm-67.58-8.29h50.4c-3.08-12.66-12.62-20.14-25.32-20.14-12.88,0-22.27,7.78-25.08,20.14" transform="translate(-204.17 -235.76)"/><path class="cls-3" d="M1087.94,547.09c-25.49,0-44.56-18.65-44.56-43.71s19.07-43.7,44.56-43.7,44.56,18.61,44.56,43.71S1113.39,547.09,1087.94,547.09Zm27.12-43.71c0-15.95-11.34-27.34-27.12-27.34s-27.12,11.39-27.12,27.34,11.34,27.35,27.12,27.35,27.12-11.39,27.12-27.35" transform="translate(-204.17 -235.76)"/><path class="cls-3" d="M1144.44,518.6h16.74c.44,8.81,7.84,13.41,17.88,13.41,9.21,0,16.28-3.89,16.28-10.86,0-7.9-8.94-9.71-19.15-11.43-13.89-2.38-30.25-5.53-30.25-24.85,0-14.95,12.92-25.19,32.31-25.19s31.93,10.54,32.26,26.71h-16.22c-.33-7.93-6.37-12.19-16.44-12.19-9.47,0-15.33,4-15.33,10.12,0,7.35,8.5,8.81,18.56,10.46,14.08,2.36,31.19,5.07,31.19,25.62,0,16.19-13.49,26.69-33.8,26.69s-33.59-11.2-34-28.49" transform="translate(-204.17 -235.76)"/><path class="cls-3" d="M1275.49,459.68c24.94,0,43.18,18.61,43.18,43.71s-18.24,43.75-43.18,43.75a41.65,41.65,0,0,1-27.67-10.1v37.9h-17.14V461.71h11.55l3.22,10.24a41.48,41.48,0,0,1,30-12.27Zm25.85,43.7c0-15.71-11.48-27.34-27.19-27.34s-27.31,11.74-27.31,27.34,11.59,27.35,27.31,27.35,27.19-11.63,27.19-27.35" transform="translate(-204.17 -235.76)"/><path class="cls-3" d="M1420,461.67V545h-13.82l-1.67-10.14a41.84,41.84,0,0,1-30.22,12.21c-24.84,0-43.4-18.76-43.4-43.75s18.56-43.66,43.4-43.66c12.28,0,22.91,4.64,30.48,12.41l2-10.42Zm-17.18,41.67c0-15.71-11.48-27.34-27.19-27.34s-27.3,11.74-27.3,27.34,11.59,27.35,27.3,27.35,27.19-11.64,27.19-27.35" transform="translate(-204.17 -235.76)"/><path class="cls-3" d="M1491.08,529.5v15.56h-12.73c-18.26,0-29.53-11.26-29.53-29.68v-39h-14.91v-3.32l29-30.82h2.91v19.46h24.8v14.68H1466V514c0,9.93,5.53,15.47,15.63,15.47Z" transform="translate(-204.17 -235.76)"/><path class="cls-3" d="M1507.42,431.12h17.7v17.67h-17.7Zm.28,30.59h17.14v83.35H1507.7Z" transform="translate(-204.17 -235.76)"/><path class="cls-3" d="M1632.2,461.67V545h-13.82l-1.67-10.14a41.84,41.84,0,0,1-30.22,12.21c-24.83,0-43.4-18.76-43.4-43.75s18.57-43.66,43.4-43.66c12.28,0,22.91,4.64,30.48,12.41l2-10.42ZM1615,503.34c0-15.71-11.48-27.34-27.19-27.34s-27.3,11.74-27.3,27.34,11.59,27.35,27.3,27.35S1615,519.05,1615,503.34" transform="translate(-204.17 -235.76)"/><rect class="cls-3" x="1452.45" y="196.08" width="17.14" height="113.23"/><path class="cls-3" d="M823.61,640c0-32.33,23.57-56,55.54-56,25.56,0,46.05,15.93,51.72,40.25h-18c-5.16-14.39-17.77-23.09-33.77-23.09-21.64,0-37.5,16.28-37.5,38.83s15.86,38.74,37.5,38.74c16.51,0,29.27-9.32,34.14-24.64h18c-5.61,25.41-26.1,41.8-52.13,41.8-32,0-55.54-23.66-55.54-55.9" transform="translate(-204.17 -235.76)"/><path class="cls-3" d="M986.86,696c-25.5,0-44.57-18.66-44.57-43.71s19.07-43.71,44.57-43.71,44.56,18.62,44.56,43.71S1012.3,696,986.86,696ZM1014,652.3c0-15.95-11.35-27.35-27.12-27.35s-27.13,11.4-27.13,27.35,11.35,27.35,27.13,27.35S1014,668.25,1014,652.3" transform="translate(-204.17 -235.76)"/><path class="cls-3" d="M1093.77,608.73c19.49,0,31.66,14.53,31.66,35.06V694H1108.3V647.27c0-15.13-6.59-23.18-19.12-23.18-13.1,0-22.39,10.54-22.39,25.26V694h-17.14V610.63h11.95l3.33,11.63c6.3-8.41,16.6-13.53,28.84-13.53Z" transform="translate(-204.17 -235.76)"/><path class="cls-3" d="M1142.43,667.51h16.74c.44,8.82,7.84,13.42,17.89,13.42,9.2,0,16.27-3.9,16.27-10.86,0-7.91-8.94-9.72-19.15-11.43-13.88-2.38-30.25-5.54-30.25-24.86,0-14.95,12.93-25.18,32.31-25.18s31.94,10.54,32.27,26.7h-16.23c-.33-7.93-6.37-12.18-16.44-12.18-9.47,0-15.33,4-15.33,10.11,0,7.36,8.51,8.81,18.56,10.47,14.09,2.35,31.2,5.07,31.2,25.62,0,16.19-13.5,26.69-33.81,26.69s-33.59-11.21-34-28.5" transform="translate(-204.17 -235.76)"/><path class="cls-3" d="M1267.12,696c-25.5,0-44.57-18.66-44.57-43.71s19.07-43.71,44.57-43.71,44.56,18.62,44.56,43.71S1292.56,696,1267.12,696Zm27.12-43.71c0-15.95-11.35-27.35-27.12-27.35S1240,636.35,1240,652.3s11.35,27.35,27.13,27.35,27.12-11.4,27.12-27.35" transform="translate(-204.17 -235.76)"/><path class="cls-3" d="M1377.33,610.16v16.19h-9c-14.17,0-21.24,8.08-21.24,23.18V694h-17.14V610.63h11.59l2.9,11.37c6-7.9,14.14-11.84,25.52-11.84Z" transform="translate(-204.17 -235.76)"/><path class="cls-3" d="M1437.53,678.41V694h-12.74c-18.26,0-29.52-11.27-29.52-29.68v-39h-14.91V622l29-30.82h2.92v19.46h24.8V625.3H1412.4v37.64c0,9.94,5.53,15.47,15.62,15.47Z" transform="translate(-204.17 -235.76)"/><path class="cls-3" d="M1453.86,580h17.71v17.67h-17.71Zm.29,30.59h17.13V694h-17.13Z" transform="translate(-204.17 -235.76)"/><path class="cls-3" d="M1494.36,658.78V610.63h17.14v45.75c0,14.48,7.9,23.27,20.77,23.27S1553,670.7,1553,656.38V610.63h17.14v48.15c0,22.43-14.87,37.23-37.87,37.23s-37.91-14.8-37.91-37.23" transform="translate(-204.17 -235.76)"/><path class="cls-3" d="M1686.39,608.73c17.57,0,29.43,13.37,29.43,32.24v53h-17.13v-48.8c0-13.42-5.83-21.09-16.21-21.09-11,0-19.55,10.12-19.55,24.31V694H1646.2v-48.8c0-13.42-5.79-21.09-16.24-21.09-11.08,0-19.63,10.12-19.63,24.31V694H1593.2V610.63h12.14l3,10.77a33.38,33.38,0,0,1,25.89-12.67c11.3,0,20.25,5.55,25,14.59a33,33,0,0,1,27.2-14.59Z" transform="translate(-204.17 -235.76)"/></g></g></g></svg>