<svg xmlns="http://www.w3.org/2000/svg" xmlns:xlink="http://www.w3.org/1999/xlink" id="Layer_1" data-name="Layer 1" viewBox="0 0 1507.26 505.29"><defs><style>.cls-1{fill:none;}.cls-2{clip-path:url(#clip-path);}.cls-3{fill:#fff;}</style><clipPath id="clip-path" transform="translate(-204.33 -235.82)"><rect class="cls-1" width="1915.92" height="976.9"/></clipPath></defs><g id="Reverse_Horizontal_Lockup" data-name="Reverse Horizontal Lockup"><g class="cls-2"><polygon class="cls-3" points="203.48 364.21 203.48 505.26 0.01 387.78 0 152.7 203.48 270.18 203.48 317.19 162.86 293.75 142.51 282 142.5 282 40.72 223.23 40.72 364.27 162.87 434.8 162.87 387.78 101.79 352.52 101.79 329.01 101.79 305.51 203.48 364.21"/><path class="cls-3" d="M428.18,235.82,224.6,353.36,428.18,470.9,631.76,353.36Zm0,188.06L306,353.36l122.16-70.53,122.14,70.53L530,365.11Z" transform="translate(-204.33 -235.82)"/><polygon class="cls-3" points="325.83 269.62 366.55 246.11 407.27 222.6 407.27 269.62 447.88 246.17 447.88 152.67 244.4 270.15 244.4 316.63 244.41 316.63 244.4 330.66 244.41 504.7 244.3 504.64 244.3 505.29 447.88 387.75 447.88 293.18 407.27 316.63 407.27 363.65 285.12 434.17 285.13 293.13 325.83 269.62"/><g class="cls-2"><path class="cls-3" d="M878.76,397.76c-32.72,0-56.84-24-56.84-55.88S846,286,878.76,286s56.75,23.94,56.75,55.89-24.08,55.89-56.75,55.89Zm38.76-55.88c0-22.25-16.55-38.88-38.76-38.88s-38.85,16.79-38.85,38.88,16.63,38.87,38.85,38.87,38.76-16.64,38.76-38.87" transform="translate(-204.33 -235.82)"/><path class="cls-3" d="M998.32,310.61c24.87,0,43,18.56,43,43.58s-18.18,43.62-43,43.62a41.58,41.58,0,0,1-27.59-10.06v37.79H953.64V312.64h11.52l3.21,10.2a41.38,41.38,0,0,1,30-12.23Zm25.77,43.58c0-15.67-11.44-27.27-27.11-27.27s-27.22,11.71-27.22,27.27,11.55,27.26,27.22,27.26,27.11-11.6,27.11-27.26" transform="translate(-204.33 -235.82)"/><path class="cls-3" d="M1138.62,354.38a53.15,53.15,0,0,1-.35,5.62h-67.45c2.13,13.47,11.83,21.74,25.43,21.74,9.93,0,18-4.59,22.37-12.17h18c-6.61,17.55-21.79,28.2-40.34,28.2-24.3,0-42.7-18.76-42.7-43.58s18.36-43.58,42.7-43.58c25.43,0,42.37,19.59,42.37,43.77Zm-67.38-8.27h50.25c-3.06-12.62-12.58-20.07-25.24-20.07-12.85,0-22.21,7.75-25,20.07" transform="translate(-204.33 -235.82)"/><path class="cls-3" d="M1200.75,310.75c19.44,0,31.57,14.49,31.57,34.95v50h-17.08V349.18c0-15.1-6.57-23.12-19.07-23.12-13.05,0-22.32,10.5-22.32,25.19v44.49h-17.08v-83.1h11.9l3.32,11.59c6.29-8.38,16.56-13.49,28.76-13.49Z" transform="translate(-204.33 -235.82)"/><path class="cls-3" d="M931.48,489.52c-.43,33-22.73,56.73-54.37,56.73S822,522.61,822,490.4s23.22-55.82,54.79-55.82c26.27,0,48.26,16.53,53.12,40H911.65c-4.61-13.85-18.3-22.87-34.54-22.87-21.78,0-37.16,16-37.16,38.71s15,38.74,37.16,38.74c17.19,0,31.18-9.71,35.2-24.35H873.9V489.52Z" transform="translate(-204.33 -235.82)"/><path class="cls-3" d="M1029.06,502.87a55.57,55.57,0,0,1-.35,5.61H961.25c2.14,13.47,11.83,21.75,25.44,21.75,9.93,0,18-4.59,22.36-12.17h18c-6.62,17.54-21.79,28.19-40.35,28.19-24.3,0-42.7-18.75-42.7-43.58s18.36-43.58,42.7-43.58c25.44,0,42.37,19.59,42.37,43.78Zm-67.38-8.27h50.25c-3.07-12.63-12.58-20.08-25.24-20.08-12.85,0-22.21,7.75-25,20.08" transform="translate(-204.33 -235.82)"/><path class="cls-3" d="M1085.53,546.25c-25.42,0-44.44-18.6-44.44-43.58,0-25.13,19-43.58,44.44-43.58S1130,477.65,1130,502.67,1110.9,546.25,1085.53,546.25Zm27-43.58c0-15.9-11.31-27.27-27-27.27s-27,11.37-27,27.27,11.31,27.27,27,27.27,27-11.36,27-27.27" transform="translate(-204.33 -235.82)"/><path class="cls-3" d="M1141.87,517.84h16.68c.44,8.79,7.82,13.38,17.84,13.38,9.18,0,16.23-3.89,16.23-10.83,0-7.89-8.92-9.69-19.09-11.4-13.86-2.37-30.17-5.52-30.17-24.78,0-14.91,12.89-25.12,32.22-25.12s31.84,10.51,32.17,26.63h-16.18c-.33-7.9-6.35-12.15-16.39-12.15-9.45,0-15.29,4-15.29,10.09,0,7.33,8.48,8.78,18.5,10.43,14,2.35,31.11,5.06,31.11,25.55,0,16.14-13.45,26.61-33.71,26.61s-33.49-11.17-33.92-28.41" transform="translate(-204.33 -235.82)"/><path class="cls-3" d="M1272.54,459.09c24.86,0,43,18.56,43,43.58s-18.19,43.62-43,43.62a41.53,41.53,0,0,1-27.6-10.06V574h-17.08V461.12h11.51l3.21,10.2a41.4,41.4,0,0,1,30-12.23Zm25.77,43.58c0-15.67-11.45-27.27-27.12-27.27S1244,487.12,1244,502.67s11.56,27.27,27.22,27.27,27.12-11.6,27.12-27.27" transform="translate(-204.33 -235.82)"/><path class="cls-3" d="M1416.62,461.08v83.1h-13.78l-1.66-10.1A41.76,41.76,0,0,1,1371,546.25c-24.76,0-43.27-18.71-43.27-43.62s18.51-43.54,43.27-43.54c12.25,0,22.85,4.63,30.4,12.38l2-10.39Zm-17.12,41.55c0-15.67-11.45-27.27-27.12-27.27s-27.22,11.71-27.22,27.27,11.56,27.27,27.22,27.27,27.12-11.61,27.12-27.27" transform="translate(-204.33 -235.82)"/><path class="cls-3" d="M1487.5,528.71v15.52h-12.7c-18.2,0-29.44-11.24-29.44-29.6V475.75H1430.5v-3.3l28.91-30.73h2.9v19.4H1487v14.63h-24.6v37.53c0,9.91,5.52,15.43,15.58,15.43Z" transform="translate(-204.33 -235.82)"/><path class="cls-3" d="M1503.79,430.62h17.65v17.62h-17.65Zm.28,30.5h17.09v83.1h-17.09Z" transform="translate(-204.33 -235.82)"/><path class="cls-3" d="M1628.21,461.08v83.1h-13.78l-1.67-10.1a41.72,41.72,0,0,1-30.13,12.17c-24.76,0-43.27-18.71-43.27-43.62s18.51-43.54,43.27-43.54c12.25,0,22.85,4.63,30.39,12.38l2-10.39Zm-17.13,41.55c0-15.67-11.44-27.27-27.11-27.27s-27.22,11.71-27.22,27.27S1568.3,529.9,1584,529.9s27.11-11.61,27.11-27.27" transform="translate(-204.33 -235.82)"/><rect class="cls-3" x="1448.24" y="195.51" width="17.09" height="112.9"/><path class="cls-3" d="M822,638.89c0-32.24,23.5-55.83,55.38-55.83,25.49,0,45.91,15.88,51.56,40.14H911c-5.14-14.35-17.71-23-33.66-23-21.58,0-37.4,16.24-37.4,38.72s15.82,38.63,37.4,38.63c16.46,0,29.18-9.3,34-24.57h17.94c-5.61,25.33-26,41.67-52,41.67C845.47,694.62,822,671,822,638.89" transform="translate(-204.33 -235.82)"/><path class="cls-3" d="M984.74,694.73c-25.42,0-44.44-18.6-44.44-43.58s19-43.58,44.44-43.58,44.43,18.56,44.43,43.59S1010.11,694.73,984.74,694.73Zm27-43.58c0-15.9-11.31-27.26-27-27.26s-27,11.36-27,27.26,11.32,27.27,27,27.27,27-11.36,27-27.27" transform="translate(-204.33 -235.82)"/><path class="cls-3" d="M1091.34,607.71c19.44,0,31.57,14.49,31.57,35v50h-17.08V646.14c0-15.09-6.57-23.11-19.07-23.11-13,0-22.32,10.5-22.32,25.18v44.5h-17.09V609.6h11.91l3.32,11.6c6.29-8.38,16.55-13.49,28.76-13.49Z" transform="translate(-204.33 -235.82)"/><path class="cls-3" d="M1139.87,666.32h16.68c.44,8.79,7.82,13.38,17.84,13.38,9.18,0,16.23-3.88,16.23-10.83,0-7.88-8.92-9.69-19.1-11.4-13.85-2.37-30.16-5.52-30.16-24.78,0-14.91,12.89-25.11,32.22-25.11s31.84,10.51,32.16,26.63h-16.18c-.32-7.91-6.34-12.15-16.38-12.15-9.45,0-15.29,4-15.29,10.08,0,7.34,8.48,8.79,18.5,10.43,14,2.36,31.11,5.06,31.11,25.55,0,16.14-13.46,26.61-33.71,26.61s-33.49-11.17-33.92-28.41" transform="translate(-204.33 -235.82)"/><path class="cls-3" d="M1264.18,694.73c-25.41,0-44.43-18.6-44.43-43.58s19-43.58,44.43-43.58,44.44,18.56,44.44,43.59S1289.56,694.73,1264.18,694.73Zm27-43.58c0-15.9-11.31-27.26-27-27.26s-27,11.36-27,27.26,11.31,27.27,27,27.27,27-11.36,27-27.27" transform="translate(-204.33 -235.82)"/><path class="cls-3" d="M1374.08,609.14v16.14h-9c-14.14,0-21.19,8.06-21.19,23.11v44.32H1326.8V609.6h11.56l2.89,11.34c5.94-7.88,14.1-11.8,25.44-11.8Z" transform="translate(-204.33 -235.82)"/><path class="cls-3" d="M1434.1,677.19v15.52h-12.7c-18.2,0-29.44-11.23-29.44-29.6V624.23H1377.1v-3.3L1406,590.2h2.91v19.4h24.72v14.63h-24.59v37.54c0,9.9,5.51,15.42,15.58,15.42Z" transform="translate(-204.33 -235.82)"/><path class="cls-3" d="M1450.39,579.1H1468v17.62h-17.65Zm.28,30.5h17.09v83.11h-17.09Z" transform="translate(-204.33 -235.82)"/><path class="cls-3" d="M1490.77,657.62v-48h17.08v45.62c0,14.44,7.89,23.2,20.72,23.2s20.67-8.92,20.67-23.2V609.6h17.08v48c0,22.36-14.82,37.11-37.75,37.11s-37.8-14.75-37.8-37.11" transform="translate(-204.33 -235.82)"/><path class="cls-3" d="M1682.24,607.71c17.52,0,29.35,13.33,29.35,32.14v52.86h-17.08V644.06c0-13.38-5.82-21-16.17-21-11,0-19.49,10.08-19.49,24.24v45.44h-16.68V644.06c0-13.38-5.78-21-16.19-21-11,0-19.57,10.08-19.57,24.24v45.44h-17.09V609.6h12.11l2.93,10.74a33.32,33.32,0,0,1,25.82-12.63c11.27,0,20.2,5.54,24.94,14.55a32.86,32.86,0,0,1,27.12-14.55Z" transform="translate(-204.33 -235.82)"/></g></g></g></svg>

